<?xml version="1.0" encoding="UTF-8"?><svg id="Layer_2" xmlns="http://www.w3.org/2000/svg" viewBox="0 0 1549.29 1850.88"><defs><style>.cls-1{fill:#7d6c08;}.cls-2{fill:#66590d;}.cls-3{fill:#937d00;}</style></defs><g id="Layer_1-2"><g><polygon class="cls-2" points="1442.94 0 1211.58 179.18 713.1 80.39 710.68 135.99 1075.37 323.66 1046.81 354.13 274.53 106.59 30.55 146.21 1067.43 476.02 1429.84 370.83 1511.65 374.4 1521.27 102.59 1549.29 3.26 1442.94 0"/><polygon class="cls-3" points="439.36 1267.95 828.35 1365.63 997.22 1372.99 1035.54 1267.05 614.14 1238.31 439.36 1267.95"/><polygon class="cls-3" points="1182.91 622.64 998.82 562.76 831.25 808.27 1073.07 792.88 1326.09 839.28 1182.91 622.64"/><polygon class="cls-1" points="407.06 1797.25 819.1 1507.39 740.57 1416.26 399.54 1432.51 188.34 1310.51 391.26 1777.54 407.06 1797.25"/><polygon class="cls-1" points="188.34 1310.51 625.86 1088.43 592.43 1201.07 1058 1198.02 1139.8 1224.93 1180.43 1185.21 1192.1 976.98 1094.52 1163.31 1031.11 1160.55 1037.43 955.98 878.05 894.58 368.18 1081.09 188.34 1310.51"/><polygon class="cls-2" points="368.18 1081.09 878.05 894.58 831.25 808.27 998.82 562.76 368.18 1081.09"/><polygon class="cls-2" points="1326.09 839.28 1073.07 792.88 1398.19 948.37 1496.14 812.85 1497.71 768.61 1402.33 853.26 1326.09 839.28"/><polygon class="cls-3" points="1402.33 853.26 1497.71 768.61 1511.65 374.4 1429.84 370.83 1402.33 853.26"/><polygon class="cls-1" points="354.66 967.71 981.11 523.09 1182.91 622.64 1326.09 839.28 1402.33 853.26 1429.84 370.83 1067.43 476.02 30.55 146.21 228.42 523.09 354.66 967.71"/><polygon class="cls-2" points="228.42 523.09 0 1289.09 391.26 1777.54 188.34 1310.51 354.66 967.71 228.42 523.09"/><polygon class="cls-2" points="450.01 1850.88 806.85 1695.3 819.1 1507.39 407.06 1797.25 450.01 1850.88"/><polygon class="cls-2" points="401.52 1801.15 407.06 1797.25 391.26 1777.54 401.52 1801.15"/></g></g></svg>