<?xml version="1.0" encoding="UTF-8"?><svg id="Layer_2" xmlns="http://www.w3.org/2000/svg" viewBox="0 0 1392.47 2087.95"><defs><style>.cls-1{fill:#7d6c08;}.cls-2{fill:#66590d;}.cls-3{fill:#937d00;}</style></defs><g id="Layer_1-2"><g><polygon class="cls-1" points="1322.03 143.93 1083.19 296.83 628.3 524.27 265.81 318.15 317.67 806.47 452.98 592.72 596.71 592.72 1020.01 1109.47 1271.47 1419.5 1362.13 1097.62 1031.07 728.02 1392.47 145.88 1322.03 143.93"/><polygon class="cls-1" points="219.75 1098.15 272.39 983.37 552.49 949.68 636.73 850.7 567.23 655.9 452.98 655.9 317.67 806.47 75.49 953.89 219.75 1098.15"/><polygon class="cls-1" points="501.94 1261.89 473.51 1268.2 405.07 1127.63 383.48 1353.5 452.98 1411.94 558.81 1334.54 1005.8 1373.24 1163.74 1334.54 758.87 1159.22 501.94 1261.89"/><polygon class="cls-1" points="1138.47 1500.39 999.48 1394.56 981.31 1452.21 981.31 1590.96 880.23 1674.92 707.28 1753.1 707.28 1999.5 1252.4 1487.22 1163.74 1334.54 1138.47 1500.39"/><polygon class="cls-2" points="625.14 1061.56 508.26 1129.21 501.94 1261.89 758.87 1159.22 1163.74 1334.54 683.58 904.93 625.14 1061.56"/><polygon class="cls-2" points="1083.19 2087.95 1252.4 1487.22 707.28 1999.5 1083.19 2087.95"/><polygon class="cls-3" points="550.38 1500.39 543.01 1590.96 582.5 1590.96 743.6 1590.96 981.31 1452.21 999.48 1394.56 550.38 1500.39"/><polygon class="cls-3" points="130.77 388.44 75.49 953.89 317.67 806.47 265.81 318.15 130.77 388.44"/><polygon class="cls-2" points="628.3 524.27 1083.19 296.83 1322.03 143.93 1162.85 133.32 909.5 208.18 585.45 367.86 584.39 304.52 788.49 183.49 788.49 165.03 466.79 264.36 507.14 355.11 383.29 281.06 283.97 281.06 156.41 21.36 138.37 0 0 72.09 141.82 246.29 130.77 388.44 265.81 318.15 628.3 524.27"/></g></g></svg>