<?xml version="1.0" encoding="UTF-8"?><svg id="Layer_2" xmlns="http://www.w3.org/2000/svg" viewBox="0 0 1354.37 90.92"><defs><style>.cls-1{fill:#090909;}</style></defs><g id="Layer_1-2"><g><path d="M156.07,78.22c-2.77,2.52-7.33,3.78-13.7,3.78h-21V8.5h19.74c6.23,0,10.8,1.26,13.7,3.78,2.9,2.52,4.36,6.72,4.36,12.6v5.99c0,5.39-1.93,9.45-5.77,12.18,4.55,2.52,6.82,6.83,6.82,12.92v9.45c0,6.02-1.38,10.29-4.15,12.81Zm-7.88-60.06c-1.23-1.19-3.17-1.79-5.83-1.79h-11.86v23.21h11.86c2.17,0,3.99-.7,5.46-2.1,1.47-1.4,2.21-3.25,2.21-5.56v-7.98c0-2.66-.61-4.58-1.84-5.77Zm.79,31.34c-1.4-1.37-3.25-2.05-5.56-2.05h-12.92v26.67h12.81c2.66,0,4.62-.61,5.88-1.84,1.26-1.22,1.89-3.17,1.89-5.83v-11.44c0-2.31-.7-4.15-2.1-5.51Z"/><path d="M190.35,8.5V74.02h23.42v7.98h-32.55V8.5h9.13Z"/><path d="M270.31,77.54c-3.25,2.98-7.93,4.46-14.02,4.46h-4.2c-6.09,0-10.76-1.49-14.02-4.46-3.25-2.97-4.88-7.44-4.88-13.39V26.35c0-5.95,1.63-10.41,4.88-13.39,3.25-2.97,7.93-4.46,14.02-4.46h4.2c6.09,0,10.76,1.49,14.02,4.46,3.26,2.98,4.88,7.44,4.88,13.39v37.8c0,5.95-1.63,10.41-4.88,13.39Zm-6.67-58.75c-1.61-1.54-3.71-2.31-6.3-2.31h-6.3c-2.59,0-4.69,.77-6.3,2.31-1.61,1.54-2.42,3.4-2.42,5.56v41.79c0,2.17,.8,4.03,2.42,5.57,1.61,1.54,3.71,2.31,6.3,2.31h6.3c2.59,0,4.69-.77,6.3-2.31,1.61-1.54,2.42-3.39,2.42-5.57V24.35c0-2.17-.81-4.02-2.42-5.56Z"/><path d="M327,77.54c-3.25,2.98-7.93,4.46-14.02,4.46h-4.2c-6.09,0-10.76-1.49-14.02-4.46-3.25-2.97-4.88-7.44-4.88-13.39V26.35c0-5.95,1.63-10.41,4.88-13.39,3.25-2.97,7.93-4.46,14.02-4.46h4.2c6.09,0,10.76,1.49,14.02,4.46,3.26,2.98,4.88,7.44,4.88,13.39v37.8c0,5.95-1.63,10.41-4.88,13.39Zm-6.67-58.75c-1.61-1.54-3.71-2.31-6.3-2.31h-6.3c-2.59,0-4.69,.77-6.3,2.31-1.61,1.54-2.42,3.4-2.42,5.56v41.79c0,2.17,.8,4.03,2.42,5.57,1.61,1.54,3.71,2.31,6.3,2.31h6.3c2.59,0,4.69-.77,6.3-2.31,1.61-1.54,2.42-3.39,2.42-5.57V24.35c0-2.17-.81-4.02-2.42-5.56Z"/><path d="M383.18,78.22c-2.77,2.52-7.33,3.78-13.7,3.78h-21.63V8.5h20.37c6.3,0,11.06,1.28,14.28,3.83,3.22,2.56,4.83,6.74,4.83,12.55v40.53c0,6.02-1.38,10.29-4.15,12.81Zm-7.09-59.8c-1.4-1.36-3.25-2.05-5.56-2.05h-13.54v57.75h13.44c2.66,0,4.62-.61,5.88-1.84,1.26-1.22,1.89-3.17,1.89-5.83V23.93c0-2.31-.7-4.15-2.1-5.51Z"/><path d="M469.12,51.55v30.45h-9.13V8.5h19.74c5.95,0,10.45,1.31,13.49,3.94s4.57,6.77,4.57,12.44v10.08c0,7.91-3.15,12.85-9.45,14.81l14.59,32.23h-9.98l-13.54-30.45h-10.29Zm17.69-33.39c-1.23-1.19-3.17-1.79-5.83-1.79h-11.87v27.3h11.87c2.66,0,4.6-.61,5.83-1.84,1.22-1.22,1.84-3.17,1.84-5.83v-12.07c0-2.66-.61-4.58-1.84-5.77Z"/><path d="M555.22,8.5v7.67h-25.93v24.04h23.31v7.67h-23.31v26.46h25.93v7.67h-35.07V8.5h35.07Z"/><path d="M589.76,74.33V16.16h-9.45v-7.67h28.04v7.67h-9.45v58.17h9.45v7.67h-28.04v-7.67h9.45Z"/><path d="M637.48,77.54c-3.25-2.97-4.88-7.44-4.88-13.39V26.35c0-5.95,1.63-10.41,4.88-13.39,3.25-2.97,7.93-4.46,14.02-4.46h14.81v7.98h-15.86c-2.59,0-4.69,.77-6.3,2.31-1.61,1.54-2.42,3.4-2.42,5.56v41.79c0,2.17,.8,4.03,2.42,5.57,1.61,1.54,3.71,2.31,6.3,2.31h10.29v-22.78h-9.13v-7.88h17.85v38.64h-17.96c-6.09,0-10.76-1.49-14.02-4.46Z"/><path d="M696.23,82h-8.5V8.5h14.91l16.59,65.73V8.5h8.5V82h-15.01l-16.49-65.73V82Z"/><path d="M777.34,77.54c-3.25,2.98-7.93,4.46-14.02,4.46h-14.91v-7.98h15.96c2.59,0,4.69-.77,6.3-2.31,1.61-1.54,2.42-3.39,2.42-5.57v-10.92c0-2.1-.54-3.8-1.63-5.09-1.09-1.29-2.71-1.94-4.88-1.94h-3.15c-5.18,0-9.28-1.52-12.29-4.57-3.01-3.05-4.51-7.47-4.51-13.28v-3.99c0-5.95,1.63-10.41,4.88-13.39,3.26-2.97,7.93-4.46,14.02-4.46h15.02v7.98h-16.07c-2.59,0-4.69,.77-6.3,2.31-1.61,1.54-2.42,3.4-2.42,5.56v7.98c0,2.17,.7,3.97,2.1,5.41,1.4,1.44,3.22,2.15,5.46,2.15h3.15c4.97,0,8.84,1.44,11.6,4.31,2.76,2.87,4.15,7.21,4.15,13.02v6.93c0,5.95-1.63,10.41-4.88,13.39Z"/><path d="M890.74,77.54c-3.25,2.98-7.93,4.46-14.02,4.46h-14.91v-7.98h15.96c2.59,0,4.69-.77,6.3-2.31,1.61-1.54,2.42-3.39,2.42-5.57v-10.92c0-2.1-.54-3.8-1.63-5.09-1.09-1.29-2.71-1.94-4.88-1.94h-3.15c-5.18,0-9.28-1.52-12.29-4.57-3.01-3.05-4.51-7.47-4.51-13.28v-3.99c0-5.95,1.63-10.41,4.88-13.39,3.26-2.97,7.93-4.46,14.02-4.46h15.02v7.98h-16.07c-2.59,0-4.69,.77-6.3,2.31-1.61,1.54-2.42,3.4-2.42,5.56v7.98c0,2.17,.7,3.97,2.1,5.41,1.4,1.44,3.22,2.15,5.46,2.15h3.15c4.97,0,8.84,1.44,11.6,4.31,2.76,2.87,4.15,7.21,4.15,13.02v6.93c0,5.95-1.63,10.41-4.88,13.39Z"/><path d="M949.86,77.54c-3.26,2.98-7.93,4.46-14.02,4.46h-2.62c-6.09,0-10.76-1.49-14.02-4.46-3.25-2.97-4.88-7.44-4.88-13.39V8.5h9.13v57.64c0,2.17,.8,4.03,2.42,5.57,1.61,1.54,3.71,2.31,6.3,2.31h4.73c2.59,0,4.69-.77,6.3-2.31,1.61-1.54,2.42-3.39,2.42-5.57V8.5h9.13v55.65c0,5.95-1.63,10.41-4.88,13.39Z"/><path d="M1005.77,49.4c-3.01,2.7-7.46,4.04-13.33,4.04h-10.92v28.56h-9.13V8.5h19.84c5.95,0,10.45,1.31,13.49,3.94s4.57,6.77,4.57,12.44v11.97c0,5.67-1.51,9.85-4.52,12.55Zm-6.46-31.24c-1.23-1.19-3.17-1.79-5.83-1.79h-11.97v29.19h11.97c2.66,0,4.6-.61,5.83-1.84s1.84-3.17,1.84-5.83v-13.96c0-2.66-.61-4.58-1.84-5.77Z"/><path d="M1036.11,51.55v30.45h-9.14V8.5h19.74c5.95,0,10.45,1.31,13.49,3.94,3.05,2.62,4.57,6.77,4.57,12.44v10.08c0,7.91-3.15,12.85-9.45,14.81l14.59,32.23h-9.97l-13.54-30.45h-10.29Zm17.69-33.39c-1.23-1.19-3.17-1.79-5.83-1.79h-11.86v27.3h11.86c2.66,0,4.6-.61,5.83-1.84,1.22-1.22,1.84-3.17,1.84-5.83v-12.07c0-2.66-.61-4.58-1.84-5.77Z"/><path d="M1122.21,8.5v7.67h-25.93v24.04h23.31v7.67h-23.31v26.46h25.93v7.67h-35.07V8.5h35.07Z"/><path d="M1165.58,57.32h-8.71l-10.29-41.27V82h-7.98V8.5h14.59l8.4,37.59,8.51-37.59h14.17V82h-8.19V16.06l-10.5,41.27Z"/><path d="M1235.61,8.5v7.67h-25.93v24.04h23.31v7.67h-23.31v26.46h25.93v7.67h-35.07V8.5h35.07Z"/></g><g id="layer101"><path class="cls-1" d="M48.65,89.55c-1.39-.98-2.37-2.57-3.03-4.16-.77-1.85-.97-3.86-1.2-5.83-.24-2.07-.37-4.16-.46-6.24-.28-6.78,.24-13.5,.84-20.27,.08-.86,.14-1.73,.17-2.6s.14-1.89-.27-2.71c-.33-.66-1.08-.92-1.77-1.02-.96-.14-1.92-.25-2.88-.36-1.03-.11-2.06-.2-3.09-.27-4.54-.33-9.11-.57-13.66-.35-.94,.05-2.8,.11-2.77,1.46,.02,.76,.54,1.38,1.03,1.91,1,1.07,2.28,1.8,3.56,2.47,2.48,1.29,5.07,2.8,6.7,5.14,1.45,2.08,1.4,5.06,1.07,7.48-.18,1.45-.71,2.84-1.53,4.05-1.46,2.11-4.11,3-6.51,3.51-3.24,.68-6.68,1.02-9.99,.88-1.66-.07-3.32-.1-4.96-.28-1.58-.17-3.23-.44-4.72-1.01-.33-.13-.7-.25-.97-.49-.84-.76,.63-1.11,1.12-1.2,2.99-.55,6.09-.86,9.03-1.71,2.03-.59,4.4-1.75,4.99-3.96,.42-1.55-.06-3.34-.93-4.65-2.09-3.15-6.15-4.95-9.42-6.52-2.25-1.08-4.56-2.15-6.65-3.52-.9-.59-2.02-1.37-2.29-2.48-.61-2.52,2.23-4.05,4.17-4.7,2.5-.84,5.2-1.22,7.81-1.5,7.28-.78,23.87-.47,30.99,.63,.49,.07,.98,.15,1.47,.22,.28,.04,.55,.1,.83,.14,.14,.03,.28,.04,.43,.02,.2-.04,.2-.15,.2-.33,0-.68,.02-1.37,.04-2.05l.11-3.63,.1-3.25,.03-1.14c.16-5.79,.16-11.11,0-11.82-.7-3.05-5.13,.77-6.7,3.15-1.17,1.77-2.39,3.51-3.93,4.99-2.06,1.96-4.86,3.24-7.73,3.16-2.84-.07-5.4-1.91-7.29-3.9-.94-.99-1.61-2.19-2.17-3.43-.59-1.32-.78-2.75-.94-4.17-.19-1.53-.28-3.08-.29-4.62,0-.78,.04-1.56,.12-2.33,.09-.9,.15-2.54,1.35-2.68,.88-.11,1.33,.78,1.58,1.48,.51,1.42,.71,2.88,1.63,4.12,1.58,2.12,4.31,3.31,6.93,2.96,1.19-.16,2.31-.64,3.24-1.4,1.04-.85,1.65-2.09,2.23-3.27,.68-1.38,1.25-2.82,1.7-4.29,.52-1.69,1.12-3.39,1.9-4.98,.51-1.05,1.13-2.1,2.02-2.89C41.19,.17,42.97-.1,44.61,.03c.86,.07,1.72,.26,2.42,.78,.78,.58,1.29,1.46,1.68,2.33,.64,1.45,1.05,3,1.43,4.53,.07,.26,.13,.52,.2,.78,1.25,4.77,1.41,7.9,1.1,20.11l-.24,9.04c-.03,.84-.04,1.68-.06,2.51-.01,.5-.03,1-.07,1.5-.03,.39-.14,.85,.05,1.21,.12,.25,.4,.22,.63,.22h.73l3.73,.07c2.82,0,7.98,.31,11.51,.55,1.51,.13,3.02,.23,4.54,.32,1.38,.08,3.91,.41,4.24-1.45,.51-2.87-1.95-4.26-4.16-5.21-2.43-1.04-4.84-2.22-6.92-3.86-2.01-1.58-4.17-3.96-4.28-6.65-.07-1.77,1.12-3.35,2.3-4.56,1.6-1.64,3.63-2.79,5.82-3.45,5.95-1.81,12.8-1.55,18.79-.05,1.58,.4,3.11,.95,4.64,1.51-.44-.16-1.26,.01-1.73,.02-2.67,.07-5.38,.31-7.95,1.07-2.18,.64-5.63,1.93-6.27,4.41-.05,.19-.08,.38-.09,.57-.14,2.26,1.31,4.35,3.32,5.27,3.07,1.4,6.42,2,9.61,3.05,3.13,1.03,6.61,2.31,6.72,6.13,.2,7.13-11.02,7.94-15.9,8.11-4.46,.15-8.92-.06-13.37-.12-2.41-.03-4.82-.12-7.23-.22-2.22-.1-4.5-.36-6.72-.22-1.01,.06-1.58,.6-1.86,1.57-.45,1.58-.62,3.27-.86,4.89-.54,3.51-1.06,7.09-1.05,10.65,0,1.66-.14,4.05,1.23,5.27,2.08,1.87,3.93-.91,4.81-2.53,1.61-2.98,3.4-6.23,6.52-7.87,1.71-.9,3.72-1.04,5.61-1.01,1.41,.02,2.85,.08,4.21,.49,2.25,.67,3.66,2.39,4.55,4.5,.65,1.55,1.06,3.19,1.45,4.82,1.57,6.57,1.64,8.45,.47,12.6-.14,.52-.33,1.02-.57,1.5-.14,.26-.62,1.2-1.02,.99-.19-.1-.19-.41-.2-.59-.11-1.92-.6-3.81-1.43-5.55-.68-1.45-1.59-2.84-2.84-3.87-.92-.78-2.06-1.27-3.26-1.42-1.33-.14-2.57,.39-3.59,1.22-.6,.5-1.14,1.06-1.62,1.67-.48,.59-.92,1.2-1.32,1.85-.78,1.31-1.33,2.74-1.88,4.16-.35,.9-.69,1.79-1.09,2.66-.47,1.06-1.07,2.07-1.76,3-1.46,1.9-3.86,3.34-6.33,3.16-.93-.07-1.83-.39-2.59-.93Z"/></g><g id="layer101-2"><path class="cls-1" d="M1306.73,89.97c-1.39-.98-2.37-2.57-3.03-4.16-.77-1.85-.97-3.86-1.2-5.83-.24-2.07-.37-4.16-.46-6.24-.28-6.78,.24-13.5,.84-20.27,.08-.86,.14-1.73,.17-2.6s.14-1.89-.27-2.71c-.33-.66-1.08-.92-1.77-1.02-.96-.14-1.92-.25-2.88-.36-1.03-.11-2.06-.2-3.09-.27-4.54-.33-9.11-.57-13.66-.35-.94,.05-2.8,.11-2.77,1.46,.02,.76,.54,1.38,1.03,1.91,1,1.07,2.28,1.8,3.56,2.47,2.48,1.29,5.07,2.8,6.7,5.14,1.45,2.08,1.4,5.06,1.07,7.48-.18,1.45-.71,2.84-1.53,4.05-1.46,2.11-4.11,3-6.51,3.51-3.24,.68-6.68,1.02-9.99,.88-1.66-.07-3.32-.1-4.96-.28-1.58-.17-3.23-.44-4.72-1.01-.33-.13-.7-.25-.97-.49-.84-.76,.63-1.11,1.12-1.2,2.99-.55,6.09-.86,9.03-1.71,2.03-.59,4.4-1.75,4.99-3.96,.42-1.55-.06-3.34-.93-4.65-2.09-3.15-6.15-4.95-9.42-6.52-2.25-1.08-4.56-2.15-6.65-3.52-.9-.59-2.02-1.37-2.29-2.48-.61-2.52,2.23-4.05,4.17-4.7,2.5-.84,5.2-1.22,7.81-1.5,7.28-.78,23.87-.47,30.99,.63,.49,.07,.98,.15,1.47,.22,.28,.04,.55,.1,.83,.14,.14,.03,.28,.04,.43,.02,.2-.04,.2-.15,.2-.33,0-.68,.02-1.37,.04-2.05l.11-3.63,.1-3.25,.03-1.14c.16-5.79,.16-11.11,0-11.82-.7-3.05-5.13,.77-6.7,3.15-1.17,1.77-2.39,3.51-3.93,4.99-2.06,1.96-4.86,3.24-7.73,3.16-2.84-.07-5.4-1.91-7.29-3.9-.94-.99-1.61-2.19-2.17-3.43-.59-1.32-.78-2.75-.94-4.17-.19-1.53-.28-3.08-.29-4.62,0-.78,.04-1.56,.12-2.33,.09-.9,.15-2.54,1.35-2.68,.88-.11,1.33,.78,1.58,1.48,.51,1.42,.71,2.88,1.63,4.12,1.58,2.12,4.31,3.31,6.93,2.96,1.19-.16,2.31-.64,3.24-1.4,1.04-.85,1.65-2.09,2.23-3.27,.68-1.38,1.25-2.82,1.7-4.29,.52-1.69,1.12-3.39,1.9-4.98,.51-1.05,1.13-2.1,2.02-2.89,1.27-1.12,3.05-1.39,4.68-1.26,.86,.07,1.72,.26,2.42,.78,.78,.58,1.29,1.46,1.68,2.33,.64,1.45,1.05,3,1.43,4.53,.07,.26,.13,.52,.2,.78,1.25,4.77,1.41,7.9,1.1,20.11l-.24,9.04c-.03,.84-.04,1.68-.06,2.51-.01,.5-.03,1-.07,1.5-.03,.39-.14,.85,.05,1.21,.12,.25,.4,.22,.63,.22h.73l3.73,.07c2.82,0,7.98,.31,11.51,.55,1.51,.13,3.02,.23,4.54,.32,1.38,.08,3.91,.41,4.24-1.45,.51-2.87-1.95-4.26-4.16-5.21-2.43-1.04-4.84-2.22-6.92-3.86-2.01-1.58-4.17-3.96-4.28-6.65-.07-1.77,1.12-3.35,2.3-4.56,1.6-1.64,3.63-2.79,5.82-3.45,5.95-1.81,12.8-1.55,18.79-.05,1.58,.4,3.11,.95,4.64,1.51-.44-.16-1.26,.01-1.73,.02-2.67,.07-5.38,.31-7.95,1.07-2.18,.64-5.63,1.93-6.27,4.41-.05,.19-.08,.38-.09,.57-.14,2.26,1.31,4.35,3.32,5.27,3.07,1.4,6.42,2,9.61,3.05,3.13,1.03,6.61,2.31,6.72,6.13,.2,7.13-11.02,7.94-15.9,8.11-4.46,.15-8.92-.06-13.37-.12-2.41-.03-4.82-.12-7.23-.22-2.22-.1-4.5-.36-6.72-.22-1.01,.06-1.58,.6-1.86,1.57-.45,1.58-.62,3.27-.86,4.89-.54,3.51-1.06,7.09-1.05,10.65,0,1.66-.14,4.05,1.23,5.27,2.08,1.87,3.93-.91,4.81-2.53,1.61-2.98,3.4-6.23,6.52-7.87,1.71-.9,3.72-1.04,5.61-1.01,1.41,.02,2.85,.08,4.21,.49,2.25,.67,3.66,2.39,4.55,4.5,.65,1.55,1.06,3.19,1.45,4.82,1.57,6.57,1.64,8.45,.47,12.6-.14,.52-.33,1.02-.57,1.5-.14,.26-.62,1.2-1.02,.99-.19-.1-.19-.41-.2-.59-.11-1.92-.6-3.81-1.43-5.55-.68-1.45-1.59-2.84-2.84-3.87-.92-.78-2.06-1.27-3.26-1.42-1.33-.14-2.57,.39-3.59,1.22-.6,.5-1.14,1.06-1.62,1.67-.48,.59-.92,1.2-1.32,1.85-.78,1.31-1.33,2.74-1.88,4.16-.35,.9-.69,1.79-1.09,2.66-.47,1.06-1.07,2.07-1.76,3-1.46,1.9-3.86,3.34-6.33,3.16-.93-.07-1.83-.39-2.59-.93Z"/></g></g></svg>