<?xml version="1.0" encoding="UTF-8"?><svg id="Layer_2" xmlns="http://www.w3.org/2000/svg" viewBox="0 0 987.33 927.96"><defs><style>.cls-1{fill:#fff;}</style></defs><g id="Layer_1-2"><g id="layer101"><path class="cls-1" d="M498.82,918.21c-14.26-10-24.33-26.34-31.09-42.61-7.88-19-9.92-39.62-12.26-59.82-2.46-21.25-3.81-42.62-4.68-64-2.83-69.51,2.48-138.4,8.62-207.8,.78-8.86,1.41-17.74,1.71-26.63s1.43-19.38-2.73-27.77c-3.38-6.81-11.1-9.41-18.13-10.47-9.82-1.46-19.7-2.59-29.57-3.67-10.54-1.15-21.11-2-31.69-2.79-46.56-3.4-93.42-5.88-140.1-3.56-9.68,.48-28.74,1.17-28.36,14.92,.22,7.75,5.51,14.17,10.57,19.58,10.22,10.93,23.33,18.47,36.47,25.34,25.38,13.25,52,28.71,68.75,52.7,14.87,21.29,14.35,51.93,11,76.68-1.88,14.89-7.24,29.12-15.64,41.55-15,21.67-42.18,30.81-66.8,36-33.18,7-68.51,10.45-102.41,9-17-.74-34-1-50.89-2.89-16.2-1.77-33.1-4.51-48.36-10.38-3.4-1.3-7.18-2.56-9.93-5.05-8.61-7.82,6.41-11.36,11.53-12.3,30.64-5.63,62.48-8.82,92.6-17.54,20.77-6,45.11-17.93,51.21-40.61,4.27-15.87-.66-34.26-9.55-47.66-21.39-32.25-63.1-50.73-96.63-66.83-23.08-11.07-46.76-22-68.15-36.14-9.22-6.1-20.68-14-23.45-25.48-6.25-25.89,22.87-41.54,42.75-48.2,25.68-8.6,53.29-12.46,80.12-15.35,74.62-8,244.73-4.81,317.74,6.42,5,.68,10,1.49,15.05,2.22,2.85,.41,5.66,1,8.52,1.39,1.44,.31,2.91,.39,4.37,.24,2.09-.4,2.08-1.49,2.1-3.34,.06-7,.18-14,.39-21l1.12-37.25,1-33.32,.35-11.69c1.61-59.37,1.61-113.93,0-121.16-7.22-31.29-52.61,7.91-68.66,32.27-12,18.16-24.46,36-40.26,51.13-21.09,20.14-49.82,33.18-79.26,32.42-29.12-.76-55.34-19.62-74.74-40-9.66-10.14-16.54-22.49-22.26-35.18-6.09-13.51-8-28.18-9.63-42.78-1.93-15.73-2.91-31.56-2.95-47.4,.05-8,.42-16,1.22-23.94,.92-9.19,1.58-26,13.88-27.44,9.06-1.08,13.61,7.95,16.19,15.14,5.21,14.51,7.3,29.56,16.74,42.22,16.16,21.7,44.18,33.94,71.08,30.35,12.17-1.64,23.65-6.59,33.19-14.32,10.68-8.7,16.93-21.42,22.88-33.55,6.96-14.19,12.79-28.9,17.44-44,5.33-17.34,11.45-34.74,19.44-51.05,5.27-10.79,11.63-21.53,20.69-29.6C422.34,1.7,440.61-1,457.4,.29c8.8,.67,17.6,2.7,24.81,8,8,5.94,13.2,14.93,17.19,23.91,6.58,14.82,10.73,30.73,14.71,46.41,.67,2.67,1.34,5.35,2,8,12.84,48.95,14.45,81,11.24,206.21l-2.51,92.72c-.32,8.59-.36,17.18-.57,25.77-.12,5.12-.34,10.27-.74,15.38-.31,4-1.39,8.7,.51,12.43,1.28,2.53,4.06,2.21,6.5,2.25l7.47,.12,38.28,.58c28.89,0,81.85,3.21,118,5.61,15.52,1.3,31,2.35,46.56,3.3,14.16,.87,40.08,4.22,43.49-14.87,5.27-29.41-20-43.68-42.7-53.42-24.91-10.67-49.66-22.74-71-39.59-20.59-16.24-42.79-40.61-43.87-68.22-.71-18.13,11.48-34.4,23.55-46.78,16.42-16.83,37.2-28.57,59.64-35.39,61-18.52,131.25-15.91,192.7-.53,16.21,4.06,31.93,9.79,47.62,15.5-4.48-1.63-12.89,.12-17.69,.25-27.42,.71-55.15,3.19-81.55,11-22.37,6.6-57.77,19.77-64.34,45.19-.49,1.92-.8,3.88-.92,5.85-1.4,23.19,13.45,44.61,34.07,54,31.47,14.4,65.81,20.5,98.53,31.26,32.12,10.57,67.81,23.69,68.92,62.83,2.07,73.16-113.05,81.46-163,83.11-45.71,1.52-91.42-.64-137.12-1.25-24.73-.32-49.44-1.23-74.15-2.3-22.79-1-46.15-3.73-68.94-2.24-10.39,.66-16.24,6.11-19.09,16.09-4.64,16.2-6.32,33.52-8.79,50.14-5.57,36-10.9,72.69-10.79,109.23,.05,17.05-1.4,41.48,12.58,54.05,21.36,19.19,40.27-9.29,49.28-25.94,16.54-30.55,34.86-63.84,66.82-80.71,17.49-9.24,38.1-10.71,57.53-10.38,14.41,.24,29.24,.84,43.15,5,23.11,6.9,37.49,24.55,46.62,46.17,6.71,15.9,10.86,32.69,14.85,49.43,16.05,67.4,16.85,86.66,4.81,129.18-1.41,5.31-3.36,10.45-5.82,15.36-1.41,2.7-6.34,12.33-10.43,10.16-1.91-1-1.92-4.25-2-6.08-1.16-19.72-6.13-39.04-14.63-56.87-7-14.82-16.32-29.13-29.09-39.66-9.47-8-21.07-13.05-33.38-14.53-13.63-1.47-26.34,4-36.77,12.47-6.13,5.12-11.71,10.87-16.64,17.16-4.96,6-9.48,12.35-13.52,19-8,13.47-13.61,28.13-19.23,42.69-3.54,9.18-7.08,18.37-11.2,27.31-4.86,10.9-10.93,21.22-18.09,30.77-15,19.48-39.61,34.25-64.87,32.37-9.57-.7-18.76-4.01-26.57-9.58Z"/></g></g></svg>