<?xml version="1.0" encoding="UTF-8"?><svg id="Layer_2" xmlns="http://www.w3.org/2000/svg" viewBox="0 0 799 72.6"><defs><style>.cls-1{fill:#207ec5;}</style></defs><g id="Layer_1-2"><g><g><polygon class="cls-1" points="54.4 62.7 10.2 62.7 10.2 59.4 51 59.4 51 23.1 23.8 23.1 23.8 39.6 30.6 39.6 30.6 29.7 44.2 29.7 44.2 52.8 10.2 52.8 10.2 9.9 64.6 9.9 64.6 62.7 61.2 62.7 61.2 13.2 13.6 13.2 13.6 49.5 40.8 49.5 40.8 33 34 33 34 42.9 20.4 42.9 20.4 19.8 54.4 19.8 54.4 62.7"/><rect class="cls-1" x="3.4" width="61.2" height="3.3"/><rect class="cls-1" x="3.4" y="69.3" width="61.2" height="3.3"/><rect class="cls-1" x="0" y="3.3" width="3.4" height="66"/><rect class="cls-1" x="0" y="69.3" width="3.4" height="3.3"/><rect class="cls-1" width="3.4" height="3.3"/></g><g><polygon class="cls-1" points="115.6 62.7 64.6 62.7 64.6 59.4 112.2 59.4 112.2 23.1 85 23.1 85 39.6 91.8 39.6 91.8 29.7 105.4 29.7 105.4 52.8 71.4 52.8 71.4 9.9 125.8 9.9 125.8 62.7 122.4 62.7 122.4 13.2 74.8 13.2 74.8 49.5 102 49.5 102 33 95.2 33 95.2 42.9 81.6 42.9 81.6 19.8 115.6 19.8 115.6 62.7"/><rect class="cls-1" x="64.6" width="61.2" height="3.3"/><rect class="cls-1" x="64.6" y="69.3" width="61.2" height="3.3"/></g><g><polygon class="cls-1" points="176.8 62.7 125.8 62.7 125.8 59.4 173.4 59.4 173.4 23.1 146.2 23.1 146.2 39.6 153 39.6 153 29.7 166.6 29.7 166.6 52.8 132.6 52.8 132.6 9.9 187 9.9 187 62.7 183.6 62.7 183.6 13.2 136 13.2 136 49.5 163.2 49.5 163.2 33 156.4 33 156.4 42.9 142.8 42.9 142.8 19.8 176.8 19.8 176.8 62.7"/><rect class="cls-1" x="125.8" width="61.2" height="3.3"/><rect class="cls-1" x="125.8" y="69.3" width="61.2" height="3.3"/></g><g><polygon class="cls-1" points="238 62.7 187 62.7 187 59.4 234.6 59.4 234.6 23.1 207.4 23.1 207.4 39.6 214.2 39.6 214.2 29.7 227.8 29.7 227.8 52.8 193.8 52.8 193.8 9.9 248.2 9.9 248.2 62.7 244.8 62.7 244.8 13.2 197.2 13.2 197.2 49.5 224.4 49.5 224.4 33 217.6 33 217.6 42.9 204 42.9 204 19.8 238 19.8 238 62.7"/><rect class="cls-1" x="187" width="61.2" height="3.3"/><rect class="cls-1" x="187" y="69.3" width="61.2" height="3.3"/></g><g><polygon class="cls-1" points="299.2 62.7 248.2 62.7 248.2 59.4 295.8 59.4 295.8 23.1 268.6 23.1 268.6 39.6 275.4 39.6 275.4 29.7 289 29.7 289 52.8 255 52.8 255 9.9 309.4 9.9 309.4 62.7 306 62.7 306 13.2 258.4 13.2 258.4 49.5 285.6 49.5 285.6 33 278.8 33 278.8 42.9 265.2 42.9 265.2 19.8 299.2 19.8 299.2 62.7"/><rect class="cls-1" x="248.2" width="61.2" height="3.3"/><rect class="cls-1" x="248.2" y="69.3" width="61.2" height="3.3"/></g><g><polygon class="cls-1" points="360.4 62.7 309.4 62.7 309.4 59.4 357 59.4 357 23.1 329.8 23.1 329.8 39.6 336.6 39.6 336.6 29.7 350.2 29.7 350.2 52.8 316.2 52.8 316.2 9.9 370.6 9.9 370.6 62.7 367.2 62.7 367.2 13.2 319.6 13.2 319.6 49.5 346.8 49.5 346.8 33 340 33 340 42.9 326.4 42.9 326.4 19.8 360.4 19.8 360.4 62.7"/><rect class="cls-1" x="309.4" width="61.2" height="3.3"/><rect class="cls-1" x="309.4" y="69.3" width="61.2" height="3.3"/></g><g><polygon class="cls-1" points="421.6 62.7 370.6 62.7 370.6 59.4 418.2 59.4 418.2 23.1 391 23.1 391 39.6 397.8 39.6 397.8 29.7 411.4 29.7 411.4 52.8 377.4 52.8 377.4 9.9 431.8 9.9 431.8 62.7 428.4 62.7 428.4 13.2 380.8 13.2 380.8 49.5 408 49.5 408 33 401.2 33 401.2 42.9 387.6 42.9 387.6 19.8 421.6 19.8 421.6 62.7"/><rect class="cls-1" x="370.6" width="61.2" height="3.3"/><rect class="cls-1" x="370.6" y="69.3" width="61.2" height="3.3"/></g><g><polygon class="cls-1" points="482.8 62.7 431.8 62.7 431.8 59.4 479.4 59.4 479.4 23.1 452.2 23.1 452.2 39.6 459 39.6 459 29.7 472.6 29.7 472.6 52.8 438.6 52.8 438.6 9.9 493 9.9 493 62.7 489.6 62.7 489.6 13.2 442 13.2 442 49.5 469.2 49.5 469.2 33 462.4 33 462.4 42.9 448.8 42.9 448.8 19.8 482.8 19.8 482.8 62.7"/><rect class="cls-1" x="431.8" width="61.2" height="3.3"/><rect class="cls-1" x="431.8" y="69.3" width="61.2" height="3.3"/></g><g><polygon class="cls-1" points="544 62.7 493 62.7 493 59.4 540.6 59.4 540.6 23.1 513.4 23.1 513.4 39.6 520.2 39.6 520.2 29.7 533.8 29.7 533.8 52.8 499.8 52.8 499.8 9.9 554.2 9.9 554.2 62.7 550.8 62.7 550.8 13.2 503.2 13.2 503.2 49.5 530.4 49.5 530.4 33 523.6 33 523.6 42.9 510 42.9 510 19.8 544 19.8 544 62.7"/><rect class="cls-1" x="493" width="61.2" height="3.3"/><rect class="cls-1" x="493" y="69.3" width="61.2" height="3.3"/></g><g><polygon class="cls-1" points="605.2 62.7 554.2 62.7 554.2 59.4 601.8 59.4 601.8 23.1 574.6 23.1 574.6 39.6 581.4 39.6 581.4 29.7 595 29.7 595 52.8 561 52.8 561 9.9 615.4 9.9 615.4 62.7 612 62.7 612 13.2 564.4 13.2 564.4 49.5 591.6 49.5 591.6 33 584.8 33 584.8 42.9 571.2 42.9 571.2 19.8 605.2 19.8 605.2 62.7"/><rect class="cls-1" x="554.2" width="61.2" height="3.3"/><rect class="cls-1" x="554.2" y="69.3" width="61.2" height="3.3"/></g><g><polygon class="cls-1" points="666.4 62.7 615.4 62.7 615.4 59.4 663 59.4 663 23.1 635.8 23.1 635.8 39.6 642.6 39.6 642.6 29.7 656.2 29.7 656.2 52.8 622.2 52.8 622.2 9.9 676.6 9.9 676.6 62.7 673.2 62.7 673.2 13.2 625.6 13.2 625.6 49.5 652.8 49.5 652.8 33 646 33 646 42.9 632.4 42.9 632.4 19.8 666.4 19.8 666.4 62.7"/><rect class="cls-1" x="615.4" width="61.2" height="3.3"/><rect class="cls-1" x="615.4" y="69.3" width="61.2" height="3.3"/></g><g><polygon class="cls-1" points="727.6 62.7 676.6 62.7 676.6 59.4 724.2 59.4 724.2 23.1 697 23.1 697 39.6 703.8 39.6 703.8 29.7 717.4 29.7 717.4 52.8 683.4 52.8 683.4 9.9 737.8 9.9 737.8 62.7 734.4 62.7 734.4 13.2 686.8 13.2 686.8 49.5 714 49.5 714 33 707.2 33 707.2 42.9 693.6 42.9 693.6 19.8 727.6 19.8 727.6 62.7"/><rect class="cls-1" x="676.6" width="61.2" height="3.3"/><rect class="cls-1" x="676.6" y="69.3" width="61.2" height="3.3"/></g><g><polyline class="cls-1" points="788.8 13.2 748 13.2 748 49.5 775.2 49.5 775.2 33 768.4 33 768.4 42.9 754.8 42.9 754.8 19.8 788.8 19.8 788.8 62.7 737.8 62.7 737.8 59.4 785.4 59.4 785.4 23.1 758.2 23.1 758.2 39.6 765 39.6 765 29.7 778.6 29.7 778.6 52.8 744.6 52.8 744.6 9.9 788.8 9.9"/><rect class="cls-1" x="737.8" width="61.2" height="3.3"/><rect class="cls-1" x="737.8" y="69.3" width="61.2" height="3.3"/><rect class="cls-1" x="795.6" y="62.7" width="3.4" height="6.6"/><rect class="cls-1" x="795.6" y="3.3" width="3.4" height="59.4"/></g></g></g></svg>