<?xml version="1.0" encoding="UTF-8"?><svg id="Layer_2" xmlns="http://www.w3.org/2000/svg" viewBox="0 0 800 16.5"><defs><style>.cls-1{fill:#207ec5;}</style></defs><g id="Layer_1-2"><g><g><polygon class="cls-1" points="12.04 14.25 2.26 14.25 2.26 13.5 11.29 13.5 11.29 5.25 5.27 5.25 5.27 9 6.77 9 6.77 6.75 9.78 6.75 9.78 12 2.26 12 2.26 2.25 14.3 2.25 14.3 14.25 13.55 14.25 13.55 3 3.01 3 3.01 11.25 9.03 11.25 9.03 7.5 7.53 7.5 7.53 9.75 4.52 9.75 4.52 4.5 12.04 4.5 12.04 14.25"/><rect class="cls-1" x=".75" width="13.55" height=".75"/><rect class="cls-1" x=".75" y="15.75" width="13.55" height=".75"/><rect class="cls-1" x="0" y=".75" width=".75" height="15"/><rect class="cls-1" x="0" y="15.75" width=".75" height=".75"/><rect class="cls-1" width=".75" height=".75"/></g><g><polygon class="cls-1" points="25.59 14.25 14.3 14.25 14.3 13.5 24.84 13.5 24.84 5.25 18.81 5.25 18.81 9 20.32 9 20.32 6.75 23.33 6.75 23.33 12 15.8 12 15.8 2.25 27.85 2.25 27.85 14.25 27.09 14.25 27.09 3 16.56 3 16.56 11.25 22.58 11.25 22.58 7.5 21.07 7.5 21.07 9.75 18.06 9.75 18.06 4.5 25.59 4.5 25.59 14.25"/><rect class="cls-1" x="14.3" width="13.55" height=".75"/><rect class="cls-1" x="14.3" y="15.75" width="13.55" height=".75"/></g><g><polygon class="cls-1" points="39.13 14.25 27.85 14.25 27.85 13.5 38.38 13.5 38.38 5.25 32.36 5.25 32.36 9 33.87 9 33.87 6.75 36.88 6.75 36.88 12 29.35 12 29.35 2.25 41.39 2.25 41.39 14.25 40.64 14.25 40.64 3 30.1 3 30.1 11.25 36.12 11.25 36.12 7.5 34.62 7.5 34.62 9.75 31.61 9.75 31.61 4.5 39.13 4.5 39.13 14.25"/><rect class="cls-1" x="27.85" width="13.55" height=".75"/><rect class="cls-1" x="27.85" y="15.75" width="13.55" height=".75"/></g><g><polygon class="cls-1" points="52.68 14.25 41.39 14.25 41.39 13.5 51.93 13.5 51.93 5.25 45.91 5.25 45.91 9 47.41 9 47.41 6.75 50.42 6.75 50.42 12 42.9 12 42.9 2.25 54.94 2.25 54.94 14.25 54.19 14.25 54.19 3 43.65 3 43.65 11.25 49.67 11.25 49.67 7.5 48.17 7.5 48.17 9.75 45.16 9.75 45.16 4.5 52.68 4.5 52.68 14.25"/><rect class="cls-1" x="41.39" width="13.55" height=".75"/><rect class="cls-1" x="41.39" y="15.75" width="13.55" height=".75"/></g><g><polygon class="cls-1" points="66.23 14.25 54.94 14.25 54.94 13.5 65.48 13.5 65.48 5.25 59.45 5.25 59.45 9 60.96 9 60.96 6.75 63.97 6.75 63.97 12 56.44 12 56.44 2.25 68.49 2.25 68.49 14.25 67.73 14.25 67.73 3 57.2 3 57.2 11.25 63.22 11.25 63.22 7.5 61.71 7.5 61.71 9.75 58.7 9.75 58.7 4.5 66.23 4.5 66.23 14.25"/><rect class="cls-1" x="54.94" width="13.55" height=".75"/><rect class="cls-1" x="54.94" y="15.75" width="13.55" height=".75"/></g><g><polygon class="cls-1" points="79.77 14.25 68.49 14.25 68.49 13.5 79.02 13.5 79.02 5.25 73 5.25 73 9 74.51 9 74.51 6.75 77.52 6.75 77.52 12 69.99 12 69.99 2.25 82.03 2.25 82.03 14.25 81.28 14.25 81.28 3 70.74 3 70.74 11.25 76.76 11.25 76.76 7.5 75.26 7.5 75.26 9.75 72.25 9.75 72.25 4.5 79.77 4.5 79.77 14.25"/><rect class="cls-1" x="68.49" width="13.55" height=".75"/><rect class="cls-1" x="68.49" y="15.75" width="13.55" height=".75"/></g><g><polygon class="cls-1" points="93.32 14.25 82.03 14.25 82.03 13.5 92.57 13.5 92.57 5.25 86.55 5.25 86.55 9 88.05 9 88.05 6.75 91.06 6.75 91.06 12 83.54 12 83.54 2.25 95.58 2.25 95.58 14.25 94.83 14.25 94.83 3 84.29 3 84.29 11.25 90.31 11.25 90.31 7.5 88.81 7.5 88.81 9.75 85.79 9.75 85.79 4.5 93.32 4.5 93.32 14.25"/><rect class="cls-1" x="82.03" width="13.55" height=".75"/><rect class="cls-1" x="82.03" y="15.75" width="13.55" height=".75"/></g><g><polygon class="cls-1" points="106.87 14.25 95.58 14.25 95.58 13.5 106.11 13.5 106.11 5.25 100.09 5.25 100.09 9 101.6 9 101.6 6.75 104.61 6.75 104.61 12 97.08 12 97.08 2.25 109.13 2.25 109.13 14.25 108.37 14.25 108.37 3 97.84 3 97.84 11.25 103.86 11.25 103.86 7.5 102.35 7.5 102.35 9.75 99.34 9.75 99.34 4.5 106.87 4.5 106.87 14.25"/><rect class="cls-1" x="95.58" width="13.55" height=".75"/><rect class="cls-1" x="95.58" y="15.75" width="13.55" height=".75"/></g><g><polygon class="cls-1" points="120.41 14.25 109.13 14.25 109.13 13.5 119.66 13.5 119.66 5.25 113.64 5.25 113.64 9 115.15 9 115.15 6.75 118.16 6.75 118.16 12 110.63 12 110.63 2.25 122.67 2.25 122.67 14.25 121.92 14.25 121.92 3 111.38 3 111.38 11.25 117.4 11.25 117.4 7.5 115.9 7.5 115.9 9.75 112.89 9.75 112.89 4.5 120.41 4.5 120.41 14.25"/><rect class="cls-1" x="109.13" width="13.55" height=".75"/><rect class="cls-1" x="109.13" y="15.75" width="13.55" height=".75"/></g><g><polygon class="cls-1" points="133.96 14.25 122.67 14.25 122.67 13.5 133.21 13.5 133.21 5.25 127.19 5.25 127.19 9 128.69 9 128.69 6.75 131.7 6.75 131.7 12 124.18 12 124.18 2.25 136.22 2.25 136.22 14.25 135.47 14.25 135.47 3 124.93 3 124.93 11.25 130.95 11.25 130.95 7.5 129.44 7.5 129.44 9.75 126.43 9.75 126.43 4.5 133.96 4.5 133.96 14.25"/><rect class="cls-1" x="122.67" width="13.55" height=".75"/><rect class="cls-1" x="122.67" y="15.75" width="13.55" height=".75"/></g><g><polygon class="cls-1" points="147.51 14.25 136.22 14.25 136.22 13.5 146.75 13.5 146.75 5.25 140.73 5.25 140.73 9 142.24 9 142.24 6.75 145.25 6.75 145.25 12 137.72 12 137.72 2.25 149.76 2.25 149.76 14.25 149.01 14.25 149.01 3 138.48 3 138.48 11.25 144.5 11.25 144.5 7.5 142.99 7.5 142.99 9.75 139.98 9.75 139.98 4.5 147.51 4.5 147.51 14.25"/><rect class="cls-1" x="136.22" width="13.55" height=".75"/><rect class="cls-1" x="136.22" y="15.75" width="13.55" height=".75"/></g><g><polygon class="cls-1" points="161.05 14.25 149.76 14.25 149.76 13.5 160.3 13.5 160.3 5.25 154.28 5.25 154.28 9 155.79 9 155.79 6.75 158.8 6.75 158.8 12 151.27 12 151.27 2.25 163.31 2.25 163.31 14.25 162.56 14.25 162.56 3 152.02 3 152.02 11.25 158.04 11.25 158.04 7.5 156.54 7.5 156.54 9.75 153.53 9.75 153.53 4.5 161.05 4.5 161.05 14.25"/><rect class="cls-1" x="149.76" width="13.55" height=".75"/><rect class="cls-1" x="149.76" y="15.75" width="13.55" height=".75"/></g><g><polygon class="cls-1" points="174.6 14.25 163.31 14.25 163.31 13.5 173.85 13.5 173.85 5.25 167.83 5.25 167.83 9 169.33 9 169.33 6.75 172.34 6.75 172.34 12 164.82 12 164.82 2.25 176.86 2.25 176.86 14.25 176.11 14.25 176.11 3 165.57 3 165.57 11.25 171.59 11.25 171.59 7.5 170.08 7.5 170.08 9.75 167.07 9.75 167.07 4.5 174.6 4.5 174.6 14.25"/><rect class="cls-1" x="163.31" width="13.55" height=".75"/><rect class="cls-1" x="163.31" y="15.75" width="13.55" height=".75"/></g><g><polygon class="cls-1" points="188.15 14.25 176.86 14.25 176.86 13.5 187.39 13.5 187.39 5.25 181.37 5.25 181.37 9 182.88 9 182.88 6.75 185.89 6.75 185.89 12 178.36 12 178.36 2.25 190.4 2.25 190.4 14.25 189.65 14.25 189.65 3 179.12 3 179.12 11.25 185.14 11.25 185.14 7.5 183.63 7.5 183.63 9.75 180.62 9.75 180.62 4.5 188.15 4.5 188.15 14.25"/><rect class="cls-1" x="176.86" width="13.55" height=".75"/><rect class="cls-1" x="176.86" y="15.75" width="13.55" height=".75"/></g><g><polygon class="cls-1" points="201.69 14.25 190.4 14.25 190.4 13.5 200.94 13.5 200.94 5.25 194.92 5.25 194.92 9 196.43 9 196.43 6.75 199.44 6.75 199.44 12 191.91 12 191.91 2.25 203.95 2.25 203.95 14.25 203.2 14.25 203.2 3 192.66 3 192.66 11.25 198.68 11.25 198.68 7.5 197.18 7.5 197.18 9.75 194.17 9.75 194.17 4.5 201.69 4.5 201.69 14.25"/><rect class="cls-1" x="190.4" width="13.55" height=".75"/><rect class="cls-1" x="190.4" y="15.75" width="13.55" height=".75"/></g><g><polygon class="cls-1" points="215.24 14.25 203.95 14.25 203.95 13.5 214.49 13.5 214.49 5.25 208.47 5.25 208.47 9 209.97 9 209.97 6.75 212.98 6.75 212.98 12 205.46 12 205.46 2.25 217.5 2.25 217.5 14.25 216.75 14.25 216.75 3 206.21 3 206.21 11.25 212.23 11.25 212.23 7.5 210.72 7.5 210.72 9.75 207.71 9.75 207.71 4.5 215.24 4.5 215.24 14.25"/><rect class="cls-1" x="203.95" width="13.55" height=".75"/><rect class="cls-1" x="203.95" y="15.75" width="13.55" height=".75"/></g><g><polygon class="cls-1" points="228.79 14.25 217.5 14.25 217.5 13.5 228.03 13.5 228.03 5.25 222.01 5.25 222.01 9 223.52 9 223.52 6.75 226.53 6.75 226.53 12 219 12 219 2.25 231.04 2.25 231.04 14.25 230.29 14.25 230.29 3 219.76 3 219.76 11.25 225.78 11.25 225.78 7.5 224.27 7.5 224.27 9.75 221.26 9.75 221.26 4.5 228.79 4.5 228.79 14.25"/><rect class="cls-1" x="217.5" width="13.55" height=".75"/><rect class="cls-1" x="217.5" y="15.75" width="13.55" height=".75"/></g><g><polygon class="cls-1" points="242.33 14.25 231.04 14.25 231.04 13.5 241.58 13.5 241.58 5.25 235.56 5.25 235.56 9 237.06 9 237.06 6.75 240.08 6.75 240.08 12 232.55 12 232.55 2.25 244.59 2.25 244.59 14.25 243.84 14.25 243.84 3 233.3 3 233.3 11.25 239.32 11.25 239.32 7.5 237.82 7.5 237.82 9.75 234.81 9.75 234.81 4.5 242.33 4.5 242.33 14.25"/><rect class="cls-1" x="231.04" width="13.55" height=".75"/><rect class="cls-1" x="231.04" y="15.75" width="13.55" height=".75"/></g><g><polygon class="cls-1" points="255.88 14.25 244.59 14.25 244.59 13.5 255.13 13.5 255.13 5.25 249.11 5.25 249.11 9 250.61 9 250.61 6.75 253.62 6.75 253.62 12 246.1 12 246.1 2.25 258.14 2.25 258.14 14.25 257.38 14.25 257.38 3 246.85 3 246.85 11.25 252.87 11.25 252.87 7.5 251.36 7.5 251.36 9.75 248.35 9.75 248.35 4.5 255.88 4.5 255.88 14.25"/><rect class="cls-1" x="244.59" width="13.55" height=".75"/><rect class="cls-1" x="244.59" y="15.75" width="13.55" height=".75"/></g><g><polygon class="cls-1" points="269.43 14.25 258.14 14.25 258.14 13.5 268.67 13.5 268.67 5.25 262.65 5.25 262.65 9 264.16 9 264.16 6.75 267.17 6.75 267.17 12 259.64 12 259.64 2.25 271.68 2.25 271.68 14.25 270.93 14.25 270.93 3 260.4 3 260.4 11.25 266.42 11.25 266.42 7.5 264.91 7.5 264.91 9.75 261.9 9.75 261.9 4.5 269.43 4.5 269.43 14.25"/><rect class="cls-1" x="258.14" width="13.55" height=".75"/><rect class="cls-1" x="258.14" y="15.75" width="13.55" height=".75"/></g><g><polygon class="cls-1" points="282.97 14.25 271.68 14.25 271.68 13.5 282.22 13.5 282.22 5.25 276.2 5.25 276.2 9 277.7 9 277.7 6.75 280.71 6.75 280.71 12 273.19 12 273.19 2.25 285.23 2.25 285.23 14.25 284.48 14.25 284.48 3 273.94 3 273.94 11.25 279.96 11.25 279.96 7.5 278.46 7.5 278.46 9.75 275.45 9.75 275.45 4.5 282.97 4.5 282.97 14.25"/><rect class="cls-1" x="271.68" width="13.55" height=".75"/><rect class="cls-1" x="271.68" y="15.75" width="13.55" height=".75"/></g><g><polygon class="cls-1" points="296.52 14.25 285.23 14.25 285.23 13.5 295.77 13.5 295.77 5.25 289.75 5.25 289.75 9 291.25 9 291.25 6.75 294.26 6.75 294.26 12 286.74 12 286.74 2.25 298.78 2.25 298.78 14.25 298.02 14.25 298.02 3 287.49 3 287.49 11.25 293.51 11.25 293.51 7.5 292 7.5 292 9.75 288.99 9.75 288.99 4.5 296.52 4.5 296.52 14.25"/><rect class="cls-1" x="285.23" width="13.55" height=".75"/><rect class="cls-1" x="285.23" y="15.75" width="13.55" height=".75"/></g><g><polygon class="cls-1" points="310.07 14.25 298.78 14.25 298.78 13.5 309.31 13.5 309.31 5.25 303.29 5.25 303.29 9 304.8 9 304.8 6.75 307.81 6.75 307.81 12 300.28 12 300.28 2.25 312.32 2.25 312.32 14.25 311.57 14.25 311.57 3 301.03 3 301.03 11.25 307.06 11.25 307.06 7.5 305.55 7.5 305.55 9.75 302.54 9.75 302.54 4.5 310.07 4.5 310.07 14.25"/><rect class="cls-1" x="298.78" width="13.55" height=".75"/><rect class="cls-1" x="298.78" y="15.75" width="13.55" height=".75"/></g><g><polygon class="cls-1" points="323.61 14.25 312.32 14.25 312.32 13.5 322.86 13.5 322.86 5.25 316.84 5.25 316.84 9 318.34 9 318.34 6.75 321.35 6.75 321.35 12 313.83 12 313.83 2.25 325.87 2.25 325.87 14.25 325.12 14.25 325.12 3 314.58 3 314.58 11.25 320.6 11.25 320.6 7.5 319.1 7.5 319.1 9.75 316.09 9.75 316.09 4.5 323.61 4.5 323.61 14.25"/><rect class="cls-1" x="312.32" width="13.55" height=".75"/><rect class="cls-1" x="312.32" y="15.75" width="13.55" height=".75"/></g><g><polygon class="cls-1" points="337.16 14.25 325.87 14.25 325.87 13.5 336.41 13.5 336.41 5.25 330.39 5.25 330.39 9 331.89 9 331.89 6.75 334.9 6.75 334.9 12 327.38 12 327.38 2.25 339.42 2.25 339.42 14.25 338.66 14.25 338.66 3 328.13 3 328.13 11.25 334.15 11.25 334.15 7.5 332.64 7.5 332.64 9.75 329.63 9.75 329.63 4.5 337.16 4.5 337.16 14.25"/><rect class="cls-1" x="325.87" width="13.55" height=".75"/><rect class="cls-1" x="325.87" y="15.75" width="13.55" height=".75"/></g><g><polygon class="cls-1" points="350.71 14.25 339.42 14.25 339.42 13.5 349.95 13.5 349.95 5.25 343.93 5.25 343.93 9 345.44 9 345.44 6.75 348.45 6.75 348.45 12 340.92 12 340.92 2.25 352.96 2.25 352.96 14.25 352.21 14.25 352.21 3 341.67 3 341.67 11.25 347.7 11.25 347.7 7.5 346.19 7.5 346.19 9.75 343.18 9.75 343.18 4.5 350.71 4.5 350.71 14.25"/><rect class="cls-1" x="339.42" width="13.55" height=".75"/><rect class="cls-1" x="339.42" y="15.75" width="13.55" height=".75"/></g><g><polygon class="cls-1" points="364.25 14.25 352.96 14.25 352.96 13.5 363.5 13.5 363.5 5.25 357.48 5.25 357.48 9 358.98 9 358.98 6.75 361.99 6.75 361.99 12 354.47 12 354.47 2.25 366.51 2.25 366.51 14.25 365.76 14.25 365.76 3 355.22 3 355.22 11.25 361.24 11.25 361.24 7.5 359.74 7.5 359.74 9.75 356.73 9.75 356.73 4.5 364.25 4.5 364.25 14.25"/><rect class="cls-1" x="352.96" width="13.55" height=".75"/><rect class="cls-1" x="352.96" y="15.75" width="13.55" height=".75"/></g><g><polygon class="cls-1" points="377.8 14.25 366.51 14.25 366.51 13.5 377.05 13.5 377.05 5.25 371.03 5.25 371.03 9 372.53 9 372.53 6.75 375.54 6.75 375.54 12 368.02 12 368.02 2.25 380.06 2.25 380.06 14.25 379.3 14.25 379.3 3 368.77 3 368.77 11.25 374.79 11.25 374.79 7.5 373.28 7.5 373.28 9.75 370.27 9.75 370.27 4.5 377.8 4.5 377.8 14.25"/><rect class="cls-1" x="366.51" width="13.55" height=".75"/><rect class="cls-1" x="366.51" y="15.75" width="13.55" height=".75"/></g><g><polygon class="cls-1" points="391.35 14.25 380.06 14.25 380.06 13.5 390.59 13.5 390.59 5.25 384.57 5.25 384.57 9 386.08 9 386.08 6.75 389.09 6.75 389.09 12 381.56 12 381.56 2.25 393.6 2.25 393.6 14.25 392.85 14.25 392.85 3 382.31 3 382.31 11.25 388.33 11.25 388.33 7.5 386.83 7.5 386.83 9.75 383.82 9.75 383.82 4.5 391.35 4.5 391.35 14.25"/><rect class="cls-1" x="380.06" width="13.55" height=".75"/><rect class="cls-1" x="380.06" y="15.75" width="13.55" height=".75"/></g><g><polygon class="cls-1" points="404.89 14.25 393.6 14.25 393.6 13.5 404.14 13.5 404.14 5.25 398.12 5.25 398.12 9 399.62 9 399.62 6.75 402.63 6.75 402.63 12 395.11 12 395.11 2.25 407.15 2.25 407.15 14.25 406.4 14.25 406.4 3 395.86 3 395.86 11.25 401.88 11.25 401.88 7.5 400.38 7.5 400.38 9.75 397.37 9.75 397.37 4.5 404.89 4.5 404.89 14.25"/><rect class="cls-1" x="393.6" width="13.55" height=".75"/><rect class="cls-1" x="393.6" y="15.75" width="13.55" height=".75"/></g><g><polygon class="cls-1" points="418.44 14.25 407.15 14.25 407.15 13.5 417.69 13.5 417.69 5.25 411.67 5.25 411.67 9 413.17 9 413.17 6.75 416.18 6.75 416.18 12 408.65 12 408.65 2.25 420.7 2.25 420.7 14.25 419.94 14.25 419.94 3 409.41 3 409.41 11.25 415.43 11.25 415.43 7.5 413.92 7.5 413.92 9.75 410.91 9.75 410.91 4.5 418.44 4.5 418.44 14.25"/><rect class="cls-1" x="407.15" width="13.55" height=".75"/><rect class="cls-1" x="407.15" y="15.75" width="13.55" height=".75"/></g><g><polygon class="cls-1" points="431.98 14.25 420.7 14.25 420.7 13.5 431.23 13.5 431.23 5.25 425.21 5.25 425.21 9 426.72 9 426.72 6.75 429.73 6.75 429.73 12 422.2 12 422.2 2.25 434.24 2.25 434.24 14.25 433.49 14.25 433.49 3 422.95 3 422.95 11.25 428.97 11.25 428.97 7.5 427.47 7.5 427.47 9.75 424.46 9.75 424.46 4.5 431.98 4.5 431.98 14.25"/><rect class="cls-1" x="420.7" width="13.55" height=".75"/><rect class="cls-1" x="420.7" y="15.75" width="13.55" height=".75"/></g><g><polygon class="cls-1" points="445.53 14.25 434.24 14.25 434.24 13.5 444.78 13.5 444.78 5.25 438.76 5.25 438.76 9 440.26 9 440.26 6.75 443.27 6.75 443.27 12 435.75 12 435.75 2.25 447.79 2.25 447.79 14.25 447.04 14.25 447.04 3 436.5 3 436.5 11.25 442.52 11.25 442.52 7.5 441.02 7.5 441.02 9.75 438.01 9.75 438.01 4.5 445.53 4.5 445.53 14.25"/><rect class="cls-1" x="434.24" width="13.55" height=".75"/><rect class="cls-1" x="434.24" y="15.75" width="13.55" height=".75"/></g><g><polygon class="cls-1" points="459.08 14.25 447.79 14.25 447.79 13.5 458.33 13.5 458.33 5.25 452.3 5.25 452.3 9 453.81 9 453.81 6.75 456.82 6.75 456.82 12 449.29 12 449.29 2.25 461.34 2.25 461.34 14.25 460.58 14.25 460.58 3 450.05 3 450.05 11.25 456.07 11.25 456.07 7.5 454.56 7.5 454.56 9.75 451.55 9.75 451.55 4.5 459.08 4.5 459.08 14.25"/><rect class="cls-1" x="447.79" width="13.55" height=".75"/><rect class="cls-1" x="447.79" y="15.75" width="13.55" height=".75"/></g><g><polygon class="cls-1" points="472.62 14.25 461.34 14.25 461.34 13.5 471.87 13.5 471.87 5.25 465.85 5.25 465.85 9 467.36 9 467.36 6.75 470.37 6.75 470.37 12 462.84 12 462.84 2.25 474.88 2.25 474.88 14.25 474.13 14.25 474.13 3 463.59 3 463.59 11.25 469.61 11.25 469.61 7.5 468.11 7.5 468.11 9.75 465.1 9.75 465.1 4.5 472.62 4.5 472.62 14.25"/><rect class="cls-1" x="461.34" width="13.55" height=".75"/><rect class="cls-1" x="461.34" y="15.75" width="13.55" height=".75"/></g><g><polygon class="cls-1" points="486.17 14.25 474.88 14.25 474.88 13.5 485.42 13.5 485.42 5.25 479.4 5.25 479.4 9 480.9 9 480.9 6.75 483.91 6.75 483.91 12 476.39 12 476.39 2.25 488.43 2.25 488.43 14.25 487.68 14.25 487.68 3 477.14 3 477.14 11.25 483.16 11.25 483.16 7.5 481.66 7.5 481.66 9.75 478.65 9.75 478.65 4.5 486.17 4.5 486.17 14.25"/><rect class="cls-1" x="474.88" width="13.55" height=".75"/><rect class="cls-1" x="474.88" y="15.75" width="13.55" height=".75"/></g><g><polygon class="cls-1" points="499.72 14.25 488.43 14.25 488.43 13.5 498.97 13.5 498.97 5.25 492.94 5.25 492.94 9 494.45 9 494.45 6.75 497.46 6.75 497.46 12 489.93 12 489.93 2.25 501.98 2.25 501.98 14.25 501.22 14.25 501.22 3 490.69 3 490.69 11.25 496.71 11.25 496.71 7.5 495.2 7.5 495.2 9.75 492.19 9.75 492.19 4.5 499.72 4.5 499.72 14.25"/><rect class="cls-1" x="488.43" width="13.55" height=".75"/><rect class="cls-1" x="488.43" y="15.75" width="13.55" height=".75"/></g><g><polygon class="cls-1" points="513.26 14.25 501.98 14.25 501.98 13.5 512.51 13.5 512.51 5.25 506.49 5.25 506.49 9 508 9 508 6.75 511.01 6.75 511.01 12 503.48 12 503.48 2.25 515.52 2.25 515.52 14.25 514.77 14.25 514.77 3 504.23 3 504.23 11.25 510.25 11.25 510.25 7.5 508.75 7.5 508.75 9.75 505.74 9.75 505.74 4.5 513.26 4.5 513.26 14.25"/><rect class="cls-1" x="501.98" width="13.55" height=".75"/><rect class="cls-1" x="501.98" y="15.75" width="13.55" height=".75"/></g><g><polygon class="cls-1" points="526.81 14.25 515.52 14.25 515.52 13.5 526.06 13.5 526.06 5.25 520.04 5.25 520.04 9 521.54 9 521.54 6.75 524.55 6.75 524.55 12 517.03 12 517.03 2.25 529.07 2.25 529.07 14.25 528.32 14.25 528.32 3 517.78 3 517.78 11.25 523.8 11.25 523.8 7.5 522.3 7.5 522.3 9.75 519.29 9.75 519.29 4.5 526.81 4.5 526.81 14.25"/><rect class="cls-1" x="515.52" width="13.55" height=".75"/><rect class="cls-1" x="515.52" y="15.75" width="13.55" height=".75"/></g><g><polygon class="cls-1" points="540.36 14.25 529.07 14.25 529.07 13.5 539.6 13.5 539.6 5.25 533.58 5.25 533.58 9 535.09 9 535.09 6.75 538.1 6.75 538.1 12 530.57 12 530.57 2.25 542.62 2.25 542.62 14.25 541.86 14.25 541.86 3 531.33 3 531.33 11.25 537.35 11.25 537.35 7.5 535.84 7.5 535.84 9.75 532.83 9.75 532.83 4.5 540.36 4.5 540.36 14.25"/><rect class="cls-1" x="529.07" width="13.55" height=".75"/><rect class="cls-1" x="529.07" y="15.75" width="13.55" height=".75"/></g><g><polygon class="cls-1" points="553.9 14.25 542.62 14.25 542.62 13.5 553.15 13.5 553.15 5.25 547.13 5.25 547.13 9 548.64 9 548.64 6.75 551.65 6.75 551.65 12 544.12 12 544.12 2.25 556.16 2.25 556.16 14.25 555.41 14.25 555.41 3 544.87 3 544.87 11.25 550.89 11.25 550.89 7.5 549.39 7.5 549.39 9.75 546.38 9.75 546.38 4.5 553.9 4.5 553.9 14.25"/><rect class="cls-1" x="542.62" width="13.55" height=".75"/><rect class="cls-1" x="542.62" y="15.75" width="13.55" height=".75"/></g><g><polygon class="cls-1" points="567.45 14.25 556.16 14.25 556.16 13.5 566.7 13.5 566.7 5.25 560.68 5.25 560.68 9 562.18 9 562.18 6.75 565.19 6.75 565.19 12 557.67 12 557.67 2.25 569.71 2.25 569.71 14.25 568.96 14.25 568.96 3 558.42 3 558.42 11.25 564.44 11.25 564.44 7.5 562.94 7.5 562.94 9.75 559.92 9.75 559.92 4.5 567.45 4.5 567.45 14.25"/><rect class="cls-1" x="556.16" width="13.55" height=".75"/><rect class="cls-1" x="556.16" y="15.75" width="13.55" height=".75"/></g><g><polygon class="cls-1" points="581 14.25 569.71 14.25 569.71 13.5 580.24 13.5 580.24 5.25 574.22 5.25 574.22 9 575.73 9 575.73 6.75 578.74 6.75 578.74 12 571.21 12 571.21 2.25 583.25 2.25 583.25 14.25 582.5 14.25 582.5 3 571.97 3 571.97 11.25 577.99 11.25 577.99 7.5 576.48 7.5 576.48 9.75 573.47 9.75 573.47 4.5 581 4.5 581 14.25"/><rect class="cls-1" x="569.71" width="13.55" height=".75"/><rect class="cls-1" x="569.71" y="15.75" width="13.55" height=".75"/></g><g><polygon class="cls-1" points="594.54 14.25 583.25 14.25 583.25 13.5 593.79 13.5 593.79 5.25 587.77 5.25 587.77 9 589.28 9 589.28 6.75 592.29 6.75 592.29 12 584.76 12 584.76 2.25 596.8 2.25 596.8 14.25 596.05 14.25 596.05 3 585.51 3 585.51 11.25 591.53 11.25 591.53 7.5 590.03 7.5 590.03 9.75 587.02 9.75 587.02 4.5 594.54 4.5 594.54 14.25"/><rect class="cls-1" x="583.25" width="13.55" height=".75"/><rect class="cls-1" x="583.25" y="15.75" width="13.55" height=".75"/></g><g><polygon class="cls-1" points="608.09 14.25 596.8 14.25 596.8 13.5 607.34 13.5 607.34 5.25 601.32 5.25 601.32 9 602.82 9 602.82 6.75 605.83 6.75 605.83 12 598.31 12 598.31 2.25 610.35 2.25 610.35 14.25 609.6 14.25 609.6 3 599.06 3 599.06 11.25 605.08 11.25 605.08 7.5 603.57 7.5 603.57 9.75 600.56 9.75 600.56 4.5 608.09 4.5 608.09 14.25"/><rect class="cls-1" x="596.8" width="13.55" height=".75"/><rect class="cls-1" x="596.8" y="15.75" width="13.55" height=".75"/></g><g><polygon class="cls-1" points="621.64 14.25 610.35 14.25 610.35 13.5 620.88 13.5 620.88 5.25 614.86 5.25 614.86 9 616.37 9 616.37 6.75 619.38 6.75 619.38 12 611.85 12 611.85 2.25 623.89 2.25 623.89 14.25 623.14 14.25 623.14 3 612.61 3 612.61 11.25 618.63 11.25 618.63 7.5 617.12 7.5 617.12 9.75 614.11 9.75 614.11 4.5 621.64 4.5 621.64 14.25"/><rect class="cls-1" x="610.35" width="13.55" height=".75"/><rect class="cls-1" x="610.35" y="15.75" width="13.55" height=".75"/></g><g><polygon class="cls-1" points="635.18 14.25 623.89 14.25 623.89 13.5 634.43 13.5 634.43 5.25 628.41 5.25 628.41 9 629.92 9 629.92 6.75 632.93 6.75 632.93 12 625.4 12 625.4 2.25 637.44 2.25 637.44 14.25 636.69 14.25 636.69 3 626.15 3 626.15 11.25 632.17 11.25 632.17 7.5 630.67 7.5 630.67 9.75 627.66 9.75 627.66 4.5 635.18 4.5 635.18 14.25"/><rect class="cls-1" x="623.89" width="13.55" height=".75"/><rect class="cls-1" x="623.89" y="15.75" width="13.55" height=".75"/></g><g><polygon class="cls-1" points="648.73 14.25 637.44 14.25 637.44 13.5 647.98 13.5 647.98 5.25 641.96 5.25 641.96 9 643.46 9 643.46 6.75 646.47 6.75 646.47 12 638.95 12 638.95 2.25 650.99 2.25 650.99 14.25 650.24 14.25 650.24 3 639.7 3 639.7 11.25 645.72 11.25 645.72 7.5 644.21 7.5 644.21 9.75 641.2 9.75 641.2 4.5 648.73 4.5 648.73 14.25"/><rect class="cls-1" x="637.44" width="13.55" height=".75"/><rect class="cls-1" x="637.44" y="15.75" width="13.55" height=".75"/></g><g><polygon class="cls-1" points="662.28 14.25 650.99 14.25 650.99 13.5 661.52 13.5 661.52 5.25 655.5 5.25 655.5 9 657.01 9 657.01 6.75 660.02 6.75 660.02 12 652.49 12 652.49 2.25 664.53 2.25 664.53 14.25 663.78 14.25 663.78 3 653.25 3 653.25 11.25 659.27 11.25 659.27 7.5 657.76 7.5 657.76 9.75 654.75 9.75 654.75 4.5 662.28 4.5 662.28 14.25"/><rect class="cls-1" x="650.99" width="13.55" height=".75"/><rect class="cls-1" x="650.99" y="15.75" width="13.55" height=".75"/></g><g><polygon class="cls-1" points="675.82 14.25 664.53 14.25 664.53 13.5 675.07 13.5 675.07 5.25 669.05 5.25 669.05 9 670.56 9 670.56 6.75 673.57 6.75 673.57 12 666.04 12 666.04 2.25 678.08 2.25 678.08 14.25 677.33 14.25 677.33 3 666.79 3 666.79 11.25 672.81 11.25 672.81 7.5 671.31 7.5 671.31 9.75 668.3 9.75 668.3 4.5 675.82 4.5 675.82 14.25"/><rect class="cls-1" x="664.53" width="13.55" height=".75"/><rect class="cls-1" x="664.53" y="15.75" width="13.55" height=".75"/></g><g><polygon class="cls-1" points="689.37 14.25 678.08 14.25 678.08 13.5 688.62 13.5 688.62 5.25 682.6 5.25 682.6 9 684.1 9 684.1 6.75 687.11 6.75 687.11 12 679.59 12 679.59 2.25 691.63 2.25 691.63 14.25 690.87 14.25 690.87 3 680.34 3 680.34 11.25 686.36 11.25 686.36 7.5 684.85 7.5 684.85 9.75 681.84 9.75 681.84 4.5 689.37 4.5 689.37 14.25"/><rect class="cls-1" x="678.08" width="13.55" height=".75"/><rect class="cls-1" x="678.08" y="15.75" width="13.55" height=".75"/></g><g><polygon class="cls-1" points="702.92 14.25 691.63 14.25 691.63 13.5 702.16 13.5 702.16 5.25 696.14 5.25 696.14 9 697.65 9 697.65 6.75 700.66 6.75 700.66 12 693.13 12 693.13 2.25 705.17 2.25 705.17 14.25 704.42 14.25 704.42 3 693.89 3 693.89 11.25 699.91 11.25 699.91 7.5 698.4 7.5 698.4 9.75 695.39 9.75 695.39 4.5 702.92 4.5 702.92 14.25"/><rect class="cls-1" x="691.63" width="13.55" height=".75"/><rect class="cls-1" x="691.63" y="15.75" width="13.55" height=".75"/></g><g><polygon class="cls-1" points="716.46 14.25 705.17 14.25 705.17 13.5 715.71 13.5 715.71 5.25 709.69 5.25 709.69 9 711.19 9 711.19 6.75 714.21 6.75 714.21 12 706.68 12 706.68 2.25 718.72 2.25 718.72 14.25 717.97 14.25 717.97 3 707.43 3 707.43 11.25 713.45 11.25 713.45 7.5 711.95 7.5 711.95 9.75 708.94 9.75 708.94 4.5 716.46 4.5 716.46 14.25"/><rect class="cls-1" x="705.17" width="13.55" height=".75"/><rect class="cls-1" x="705.17" y="15.75" width="13.55" height=".75"/></g><g><polygon class="cls-1" points="730.01 14.25 718.72 14.25 718.72 13.5 729.26 13.5 729.26 5.25 723.24 5.25 723.24 9 724.74 9 724.74 6.75 727.75 6.75 727.75 12 720.23 12 720.23 2.25 732.27 2.25 732.27 14.25 731.51 14.25 731.51 3 720.98 3 720.98 11.25 727 11.25 727 7.5 725.49 7.5 725.49 9.75 722.48 9.75 722.48 4.5 730.01 4.5 730.01 14.25"/><rect class="cls-1" x="718.72" width="13.55" height=".75"/><rect class="cls-1" x="718.72" y="15.75" width="13.55" height=".75"/></g><g><polygon class="cls-1" points="743.56 14.25 732.27 14.25 732.27 13.5 742.8 13.5 742.8 5.25 736.78 5.25 736.78 9 738.29 9 738.29 6.75 741.3 6.75 741.3 12 733.77 12 733.77 2.25 745.81 2.25 745.81 14.25 745.06 14.25 745.06 3 734.52 3 734.52 11.25 740.55 11.25 740.55 7.5 739.04 7.5 739.04 9.75 736.03 9.75 736.03 4.5 743.56 4.5 743.56 14.25"/><rect class="cls-1" x="732.27" width="13.55" height=".75"/><rect class="cls-1" x="732.27" y="15.75" width="13.55" height=".75"/></g><g><polygon class="cls-1" points="757.1 14.25 745.81 14.25 745.81 13.5 756.35 13.5 756.35 5.25 750.33 5.25 750.33 9 751.83 9 751.83 6.75 754.84 6.75 754.84 12 747.32 12 747.32 2.25 759.36 2.25 759.36 14.25 758.61 14.25 758.61 3 748.07 3 748.07 11.25 754.09 11.25 754.09 7.5 752.59 7.5 752.59 9.75 749.58 9.75 749.58 4.5 757.1 4.5 757.1 14.25"/><rect class="cls-1" x="745.81" width="13.55" height=".75"/><rect class="cls-1" x="745.81" y="15.75" width="13.55" height=".75"/></g><g><polygon class="cls-1" points="770.65 14.25 759.36 14.25 759.36 13.5 769.9 13.5 769.9 5.25 763.88 5.25 763.88 9 765.38 9 765.38 6.75 768.39 6.75 768.39 12 760.87 12 760.87 2.25 772.91 2.25 772.91 14.25 772.15 14.25 772.15 3 761.62 3 761.62 11.25 767.64 11.25 767.64 7.5 766.13 7.5 766.13 9.75 763.12 9.75 763.12 4.5 770.65 4.5 770.65 14.25"/><rect class="cls-1" x="759.36" width="13.55" height=".75"/><rect class="cls-1" x="759.36" y="15.75" width="13.55" height=".75"/></g><g><polygon class="cls-1" points="784.2 14.25 772.91 14.25 772.91 13.5 783.44 13.5 783.44 5.25 777.42 5.25 777.42 9 778.93 9 778.93 6.75 781.94 6.75 781.94 12 774.41 12 774.41 2.25 786.45 2.25 786.45 14.25 785.7 14.25 785.7 3 775.16 3 775.16 11.25 781.19 11.25 781.19 7.5 779.68 7.5 779.68 9.75 776.67 9.75 776.67 4.5 784.2 4.5 784.2 14.25"/><rect class="cls-1" x="772.91" width="13.55" height=".75"/><rect class="cls-1" x="772.91" y="15.75" width="13.55" height=".75"/></g><g><polyline class="cls-1" points="797.74 3 788.71 3 788.71 11.25 794.73 11.25 794.73 7.5 793.23 7.5 793.23 9.75 790.22 9.75 790.22 4.5 797.74 4.5 797.74 14.25 786.45 14.25 786.45 13.5 796.99 13.5 796.99 5.25 790.97 5.25 790.97 9 792.47 9 792.47 6.75 795.48 6.75 795.48 12 787.96 12 787.96 2.25 797.74 2.25"/><rect class="cls-1" x="786.45" width="13.55" height=".75"/><rect class="cls-1" x="786.45" y="15.75" width="13.55" height=".75"/><rect class="cls-1" x="799.25" y="14.25" width=".75" height="1.5"/><rect class="cls-1" x="799.25" y=".75" width=".75" height="13.5"/></g></g></g></svg>